RBDS014runT45_grf
version=1
nRows=21
nColumns=19
inDegrees=no
endheader
time	ground_force_r_vx	ground_force_r_vy	ground_force_r_vz	ground_force_r_px	ground_force_r_py	ground_force_r_pz	ground_force_r_mx	ground_force_r_my	ground_force_r_mz	ground_force_l_vx	ground_force_l_vy	ground_force_l_vz	ground_force_l_px	ground_force_l_py	ground_force_l_pz	ground_force_l_mx	ground_force_l_my	ground_force_l_mz
      0.00000000	   -206.16837924	   1727.59959123	    -95.06493139	      2.20640124	      0.00000000	      1.09811960	      0.00000000	     11.94287409	     -0.00000000	      0.00000000	      0.00000000	      0.00000000	      0.00000000	      0.00000000	      0.00000000	      0.00000000	      0.00000000	      0.00000000
      0.00100000	   -199.01888244	   1727.13170591	    -94.66961751	      2.20392414	      0.00000000	      1.09828475	     -0.00000000	     11.34300249	     -0.00000000	      0.00000000	      0.00000000	      0.00000000	      0.00000000	      0.00000000	      0.00000000	      0.00000000	      0.00000000	      0.00000000
      0.00200000	   -191.86938563	   1726.66382060	    -94.27430363	      2.20144703	      0.00000000	      1.09844989	     -0.00000000	     10.74313088	     -0.00000000	      0.00000000	      0.00000000	      0.00000000	      0.00000000	      0.00000000	      0.00000000	      0.00000000	      0.00000000	      0.00000000
      0.00300000	   -184.71988883	   1726.19593528	    -93.87898975	      2.19896993	      0.00000000	      1.09861504	     -0.00000000	     10.14325927	     -0.00000000	      0.00000000	      0.00000000	      0.00000000	      0.00000000	      0.00000000	      0.00000000	      0.00000000	      0.00000000	      0.00000000
      0.00400000	   -177.54636255	   1725.70386562	    -93.47738494	      2.19648176	      0.00000000	      1.09877905	     -0.00000000	      9.55170869	     -0.00000000	      0.00000000	      0.00000000	      0.00000000	      0.00000000	      0.00000000	      0.00000000	      0.00000000	      0.00000000	      0.00000000
      0.00500000	   -170.36082154	   1725.19970380	    -93.07263467	      2.19398807	      0.00000000	      1.09894250	     -0.00000000	      8.96431863	     -0.00000000	      0.00000000	      0.00000000	      0.00000000	      0.00000000	      0.00000000	      0.00000000	      0.00000000	      0.00000000	      0.00000000
      0.00600000	   -163.17528053	   1724.69554197	    -92.66788440	      2.19149438	      0.00000000	      1.09910596	     -0.00000000	      8.37692856	     -0.00000000	      0.00000000	      0.00000000	      0.00000000	      0.00000000	      0.00000000	      0.00000000	      0.00000000	      0.00000000	      0.00000000
      0.00700000	   -155.98897756	   1724.13169889	    -92.25785495	      2.18898983	      0.00000000	      1.09926778	     -0.00000000	      7.79709780	     -0.00000000	      0.00000000	      0.00000000	      0.00000000	      0.00000000	      0.00000000	      0.00000000	      0.00000000	      0.00000000	      0.00000000
      0.00800000	   -148.80115068	   1723.44849330	    -91.83726713	      2.18646357	      0.00000000	      1.09942634	     -0.00000000	      7.23238563	     -0.00000000	      0.00000000	      0.00000000	      0.00000000	      0.00000000	      0.00000000	      0.00000000	      0.00000000	      0.00000000	      0.00000000
      0.00900000	   -141.61332379	   1722.76528771	    -91.41667931	      2.18393730	      0.00000000	      1.09958490	     -0.00000000	      6.66767347	     -0.00000000	      0.00000000	      0.00000000	      0.00000000	      0.00000000	      0.00000000	      0.00000000	      0.00000000	      0.00000000	      0.00000000
      0.01000000	   -134.42549691	   1722.08208212	    -90.99609150	      2.18141104	      0.00000000	      1.09974346	     -0.00000000	      6.10296130	     -0.00000000	      0.00000000	      0.00000000	      0.00000000	      0.00000000	      0.00000000	      0.00000000	      0.00000000	      0.00000000	      0.00000000
      0.01100000	   -127.26521948	   1721.07377118	    -90.55122057	      2.17883525	      0.00000000	      1.09989366	     -0.00000000	      5.57063719	     -0.00000000	      0.00000000	      0.00000000	      0.00000000	      0.00000000	      0.00000000	      0.00000000	      0.00000000	      0.00000000	      0.00000000
      0.01200000	   -120.10494205	   1720.06546024	    -90.10634965	      2.17625946	      0.00000000	      1.10004386	     -0.00000000	      5.03831308	     -0.00000000	      0.00000000	      0.00000000	      0.00000000	      0.00000000	      0.00000000	      0.00000000	      0.00000000	      0.00000000	      0.00000000
      0.01300000	   -112.94466461	   1719.05714931	    -89.66147873	      2.17368367	      0.00000000	      1.10019406	     -0.00000000	      4.50598897	      0.00000000	      0.00000000	      0.00000000	      0.00000000	      0.00000000	      0.00000000	      0.00000000	      0.00000000	      0.00000000	      0.00000000
      0.01400000	   -105.81992561	   1717.73572521	    -89.19344257	      2.17106359	      0.00000000	      1.10033623	     -0.00000000	      4.00120882	      0.00000000	      0.00000000	      0.00000000	      0.00000000	      0.00000000	      0.00000000	      0.00000000	      0.00000000	      0.00000000	      0.00000000
      0.01500000	    -98.71295582	   1716.25774452	    -88.71382379	      2.16842136	      0.00000000	      1.10047439	     -0.00000000	      3.51020064	      0.00000000	      0.00000000	      0.00000000	      0.00000000	      0.00000000	      0.00000000	      0.00000000	      0.00000000	      0.00000000	      0.00000000
      0.01600000	    -91.60598603	   1714.77976384	    -88.23420501	      2.16577913	      0.00000000	      1.10061255	     -0.00000000	      3.01919247	      0.00000000	      0.00000000	      0.00000000	      0.00000000	      0.00000000	      0.00000000	      0.00000000	      0.00000000	      0.00000000	      0.00000000
      0.01700000	    -84.52409891	   1713.09897736	    -87.73893967	      2.16310942	      0.00000000	      1.10074542	     -0.00000000	      2.54458091	      0.00000000	      0.00000000	      0.00000000	      0.00000000	      0.00000000	      0.00000000	      0.00000000	      0.00000000	      0.00000000	      0.00000000
      0.01800000	    -77.49237714	   1711.01257929	    -87.21238119	      2.16038473	      0.00000000	      1.10086773	     -0.00000000	      2.10276257	      0.00000000	      0.00000000	      0.00000000	      0.00000000	      0.00000000	      0.00000000	      0.00000000	      0.00000000	      0.00000000	      0.00000000
      0.01900000	    -70.46065538	   1708.92618121	    -86.68582270	      2.15766005	      0.00000000	      1.10099004	     -0.00000000	      1.66094423	      0.00000000	      0.00000000	      0.00000000	      0.00000000	      0.00000000	      0.00000000	      0.00000000	      0.00000000	      0.00000000	      0.00000000
      0.02000000	    -63.42893361	   1706.83978313	    -86.15926422	      2.15493537	      0.00000000	      1.10111235	     -0.00000000	      1.21912589	      0.00000000	      0.00000000	      0.00000000	      0.00000000	      0.00000000	      0.00000000	      0.00000000	      0.00000000	      0.00000000	      0.00000000
